<?xml version="1.0" encoding="UTF-8" standalone="no"?>
<!DOCTYPE svg PUBLIC "-//W3C//DTD SVG 1.1//EN" "http://www.w3.org/Graphics/SVG/1.1/DTD/svg11.dtd">
<svg width="100%" height="100%" viewBox="0 0 128 128" version="1.1" xmlns="http://www.w3.org/2000/svg" xmlns:xlink="http://www.w3.org/1999/xlink" xml:space="preserve" xmlns:serif="http://www.serif.com/" style="fill-rule:evenodd;clip-rule:evenodd;stroke-linejoin:round;stroke-miterlimit:2;">
    <g id="path2" transform="matrix(2,0,0,2,0,-0.542373)">
        <path d="M32,0.271C14.32,0.271 0,14.591 0,32.271C0,46.431 9.16,58.391 21.88,62.631C23.48,62.911 24.08,61.951 24.08,61.111C24.08,60.351 24.04,57.831 24.04,55.151C16,56.631 13.92,53.191 13.28,51.391C12.92,50.471 11.36,47.631 10,46.871C8.88,46.271 7.28,44.791 9.96,44.751C12.48,44.711 14.28,47.071 14.88,48.031C17.76,52.871 22.36,51.511 24.2,50.671C24.48,48.591 25.32,47.191 26.24,46.391C19.12,45.591 11.68,42.831 11.68,30.591C11.68,27.111 12.92,24.231 14.96,21.991C14.64,21.191 13.52,17.911 15.28,13.511C15.28,13.511 17.96,12.671 24.08,16.791C26.64,16.071 29.36,15.711 32.08,15.711C34.8,15.711 37.52,16.071 40.08,16.791C46.2,12.631 48.88,13.511 48.88,13.511C50.64,17.911 49.52,21.191 49.2,21.991C51.24,24.231 52.48,27.071 52.48,30.591C52.48,42.871 45,45.591 37.88,46.391C39.04,47.391 40.04,49.311 40.04,52.311C40.04,56.591 40,60.031 40,61.111C40,61.951 40.6,62.951 42.2,62.631C55.193,58.245 63.996,45.984 64,32.271C64,14.591 49.68,0.271 32,0.271Z"/>
    </g>
</svg>
