<?xml version="1.0" encoding="UTF-8" standalone="no"?>
<!-- Generator: Adobe Illustrator 19.0.0, SVG Export Plug-In . SVG Version: 6.00 Build 0)  -->

<svg
   xmlns:dc="http://purl.org/dc/elements/1.1/"
   xmlns:cc="http://creativecommons.org/ns#"
   xmlns:rdf="http://www.w3.org/1999/02/22-rdf-syntax-ns#"
   xmlns:svg="http://www.w3.org/2000/svg"
   xmlns="http://www.w3.org/2000/svg"
   xmlns:sodipodi="http://sodipodi.sourceforge.net/DTD/sodipodi-0.dtd"
   xmlns:inkscape="http://www.inkscape.org/namespaces/inkscape"
   version="1.1"
   id="Layer_1"
   x="0px"
   y="0px"
   viewBox="0 0 32 32"
   style="enable-background:new 0 0 32 32;"
   xml:space="preserve"
   sodipodi:docname="icon-cover-copy-black.svg"
   inkscape:version="0.92.4 (5da689c313, 2019-01-14)"><metadata
   id="metadata49"><rdf:RDF><cc:Work
       rdf:about=""><dc:format>image/svg+xml</dc:format><dc:type
         rdf:resource="http://purl.org/dc/dcmitype/StillImage" /><dc:title></dc:title></cc:Work></rdf:RDF></metadata><defs
   id="defs47">
	
	
	
	
	
	
	
	
	
	
	
	

		
	
		
	
		
	</defs><sodipodi:namedview
   pagecolor="#ffffff"
   bordercolor="#666666"
   borderopacity="1"
   objecttolerance="10"
   gridtolerance="10"
   guidetolerance="10"
   inkscape:pageopacity="0"
   inkscape:pageshadow="2"
   inkscape:window-width="1821"
   inkscape:window-height="1051"
   id="namedview45"
   showgrid="false"
   inkscape:zoom="14.75"
   inkscape:cx="-3.2102553"
   inkscape:cy="8.3864862"
   inkscape:window-x="90"
   inkscape:window-y="-9"
   inkscape:window-maximized="1"
   inkscape:current-layer="Layer_1" />

<g
   id="g837"><rect
     y="0"
     x="0"
     height="32"
     width="32"
     id="rect829"
     style="opacity:1;fill:#000000;fill-opacity:0;fill-rule:nonzero;stroke:none;stroke-width:2;stroke-linecap:round;stroke-linejoin:round;stroke-miterlimit:4;stroke-dasharray:none;stroke-dashoffset:0;stroke-opacity:1" /><path
     id="path2-6"
     d="M 11.755859 6.5 C 10.971666 6.5 10.335937 7.1357288 10.335938 7.9199219 L 10.335938 29.691406 C 10.335938 30.475599 10.971666 31.111328 11.755859 31.111328 L 27.847656 31.111328 C 28.631849 31.111328 29.267578 30.475599 29.267578 29.691406 L 29.267578 14.072266 L 23.115234 14.072266 C 22.51581 14.072266 21.695313 13.433283 21.695312 12.652344 L 21.695312 6.5 L 11.755859 6.5 z M 14.332031 17.236328 L 25.949219 17.236328 C 26.724819 17.236328 27.349609 17.861119 27.349609 18.636719 L 27.349609 19.335938 C 27.349609 20.111536 26.724819 20.736328 25.949219 20.736328 L 14.332031 20.736328 C 13.556431 20.736328 12.933594 20.111536 12.933594 19.335938 L 12.933594 18.636719 C 12.933594 17.861119 13.556431 17.236328 14.332031 17.236328 z M 14.332031 23.216797 L 25.949219 23.216797 C 26.724819 23.216797 27.349609 23.841588 27.349609 24.617188 L 27.349609 25.316406 C 27.349609 26.092006 26.724819 26.716797 25.949219 26.716797 L 14.332031 26.716797 C 13.556431 26.716797 12.933594 26.092006 12.933594 25.316406 L 12.933594 24.617188 C 12.933594 23.841588 13.556431 23.216797 14.332031 23.216797 z "
     style="fill:#000000;fill-opacity:1;stroke-width:1" /><path
     inkscape:connector-curvature="0"
     id="rect846-8"
     d="m 21.695585,6.4995561 v 6.1528549 c 0,0.780939 0.820466,1.419889 1.419889,1.419889 h 6.152854 v -2.251625 c -2e-6,-0.376563 -0.149489,-0.737744 -0.415752,-1.004021 L 24.951231,6.9154239 C 24.684954,6.6491604 24.323887,6.4995578 23.947324,6.4995561 Z"
     style="opacity:1;fill:#000000;fill-opacity:0.50196078;fill-rule:nonzero;stroke:none;stroke-width:2;stroke-linecap:round;stroke-linejoin:round;stroke-miterlimit:4;stroke-dasharray:none;stroke-dashoffset:0;stroke-opacity:1" /><path
     sodipodi:nodetypes="csssssscssc"
     id="path953"
     d="M 21.663496,4.6063707 V 2.2398883 c 0,-0.7841931 -0.635696,-1.41988939 -1.419889,-1.41988939 H 4.1515265 c -0.7841931,0 -1.4198895,0.63569629 -1.4198895,1.41988939 V 24.011526 c 0,0.784193 0.6356964,1.419889 1.4198895,1.419889 H 8.4111948 V 7.9194461 c 0,-1.8268652 1.48621,-3.3130754 3.3130752,-3.3130754 z"
     style="fill:#000000;fill-opacity:0.50196078;stroke-width:1"
     inkscape:connector-curvature="0" /><rect
     id="icon-cover-dialer_3_"
     style="opacity:0;fill:#000000;fill-opacity:1"
     width="32"
     height="32"
     x="0"
     y="0" /><path
     id="rect937-5"
     d="m 14.332031,17.236328 c -0.7756,0 -1.398437,0.624791 -1.398437,1.400391 v 0.699219 c 0,0.775599 0.622837,1.40039 1.398437,1.40039 h 11.617188 c 0.7756,0 1.40039,-0.624791 1.40039,-1.40039 v -0.699219 c 0,-0.7756 -0.62479,-1.400391 -1.40039,-1.400391 z m 0,5.980469 c -0.7756,0 -1.398437,0.624791 -1.398437,1.400391 v 0.699218 c 0,0.7756 0.622837,1.400391 1.398437,1.400391 h 11.617188 c 0.7756,0 1.40039,-0.624791 1.40039,-1.400391 v -0.699218 c 0,-0.7756 -0.62479,-1.400391 -1.40039,-1.400391 z"
     style="opacity:1;fill:#000000;fill-opacity:0.50196081;fill-rule:nonzero;stroke:none;stroke-width:2;stroke-linecap:round;stroke-linejoin:round;stroke-miterlimit:4;stroke-dasharray:none;stroke-dashoffset:0;stroke-opacity:1"
     inkscape:connector-curvature="0" /></g></svg>