<?xml version="1.0" encoding="UTF-8" standalone="no"?>
<!DOCTYPE svg PUBLIC "-//W3C//DTD SVG 1.1//EN" "http://www.w3.org/Graphics/SVG/1.1/DTD/svg11.dtd">
<svg width="100%" height="100%" viewBox="0 0 64 64" version="1.1" xmlns="http://www.w3.org/2000/svg" xmlns:xlink="http://www.w3.org/1999/xlink" xml:space="preserve" xmlns:serif="http://www.serif.com/" style="fill-rule:evenodd;clip-rule:evenodd;stroke-linejoin:round;stroke-miterlimit:2;">
    <rect id="icon-m-rot13" x="0" y="0" width="64" height="64" style="fill:white;fill-opacity:0;"/>
    <g id="g7" transform="matrix(-1.18831,0,0,1.18831,70.9034,-6.02587)">
        <g opacity="0.6">
            <path id="path5" d="M32.401,56.482C27.248,56.482 22.318,54.9 18.145,51.906C17.696,51.584 17.594,50.96 17.916,50.51C18.237,50.061 18.861,49.957 19.312,50.281C23.143,53.029 27.669,54.482 32.402,54.482C44.798,54.482 54.884,44.396 54.884,32C54.884,19.603 44.798,9.518 32.402,9.518C20.004,9.518 9.919,19.603 9.919,32L17.65,32C17.975,32 18.28,32.158 18.467,32.424C18.655,32.69 18.701,33.03 18.591,33.337L13.941,46.337C13.819,46.678 13.523,46.926 13.166,46.986C12.808,47.043 12.448,46.909 12.221,46.626C8.43,41.91 7.919,36.586 7.919,32C7.919,18.5 18.902,7.518 32.401,7.518C45.901,7.518 56.883,18.501 56.883,32C56.884,45.5 45.901,56.482 32.401,56.482ZM9.963,34C10.157,38.161 11.001,41.214 12.698,43.873L16.23,34L9.963,34Z" style="fill:white;fill-rule:nonzero;"/>
        </g>
    </g>
    <g transform="matrix(1.45351,0,0,1.45351,-14.2941,-18.482)">
        <g transform="matrix(1.21678,0,0,2.50327,-7.90456,-21.4251)">
            <path d="M27.082,27.188L27.082,21.384L25.382,21.637L25.182,21.306C25.888,21.254 26.548,21.141 27.162,20.966L27.682,20.966L27.682,27.188L27.082,27.188Z" style="fill:white;fill-rule:nonzero;"/>
            <path d="M32.762,26.216C32.948,26.319 33.158,26.42 33.392,26.517C33.625,26.614 33.888,26.702 34.182,26.779C34.475,26.857 34.802,26.919 35.162,26.964C35.522,27.009 35.935,27.032 36.402,27.032C36.855,27.032 37.272,26.996 37.652,26.925C38.032,26.854 38.362,26.755 38.642,26.629C38.922,26.502 39.138,26.35 39.292,26.172C39.445,25.994 39.522,25.794 39.522,25.574C39.522,25.354 39.435,25.149 39.262,24.961C39.088,24.773 38.815,24.613 38.442,24.48C38.068,24.347 37.592,24.244 37.012,24.169C36.432,24.095 35.735,24.057 34.922,24.057L34.922,23.766C35.682,23.766 36.325,23.728 36.852,23.654C37.378,23.579 37.802,23.477 38.122,23.348C38.442,23.218 38.675,23.067 38.822,22.896C38.968,22.724 39.042,22.541 39.042,22.346C39.042,21.977 38.795,21.68 38.302,21.457C37.808,21.233 37.148,21.121 36.322,21.121C35.722,21.121 35.162,21.189 34.642,21.326C34.122,21.462 33.682,21.627 33.322,21.821L32.922,21.608C33.348,21.4 33.835,21.222 34.382,21.073C34.928,20.924 35.575,20.849 36.322,20.849C36.788,20.849 37.228,20.883 37.642,20.951C38.055,21.019 38.412,21.117 38.712,21.243C39.012,21.369 39.248,21.523 39.422,21.705C39.595,21.886 39.682,22.094 39.682,22.327C39.682,22.534 39.618,22.722 39.492,22.891C39.365,23.059 39.192,23.207 38.972,23.333C38.752,23.459 38.488,23.568 38.182,23.659C37.875,23.749 37.548,23.824 37.202,23.882L37.202,23.921C37.602,23.96 37.982,24.025 38.342,24.116C38.702,24.206 39.015,24.321 39.282,24.461C39.548,24.6 39.762,24.762 39.922,24.947C40.082,25.132 40.162,25.334 40.162,25.554C40.162,25.82 40.065,26.062 39.872,26.279C39.678,26.496 39.412,26.681 39.072,26.833C38.732,26.985 38.328,27.102 37.862,27.183C37.395,27.264 36.895,27.304 36.362,27.304C35.855,27.304 35.398,27.278 34.992,27.227C34.585,27.175 34.222,27.107 33.902,27.022C33.582,26.938 33.295,26.844 33.042,26.74C32.788,26.637 32.562,26.533 32.362,26.429L32.762,26.216Z" style="fill:white;fill-rule:nonzero;"/>
        </g>
        <g transform="matrix(1.04492,0,0,0.843645,-1.22837,1.24852)">
            <path d="M25.196,24.4L25.56,24.4L25.616,25.96L25.644,25.96C25.868,25.452 26.138,25.03 26.456,24.695C26.773,24.359 27.137,24.192 27.548,24.192C27.66,24.192 27.767,24.203 27.87,24.226C27.972,24.249 28.08,24.296 28.192,24.365L28.08,24.851C27.968,24.793 27.874,24.755 27.8,24.738C27.725,24.721 27.622,24.712 27.492,24.712C27.184,24.712 26.862,24.877 26.526,25.206C26.19,25.536 25.886,26.111 25.616,26.931L25.616,32.688L25.196,32.688L25.196,24.4Z" style="fill:white;fill-rule:nonzero;"/>
            <path d="M28.752,28.561C28.752,27.868 28.831,27.249 28.99,26.706C29.148,26.163 29.363,25.706 29.634,25.336C29.904,24.966 30.219,24.683 30.579,24.486C30.938,24.29 31.318,24.192 31.72,24.192C32.121,24.192 32.501,24.29 32.861,24.486C33.22,24.683 33.535,24.966 33.806,25.336C34.076,25.706 34.291,26.163 34.45,26.706C34.608,27.249 34.688,27.868 34.688,28.561C34.688,29.243 34.608,29.853 34.45,30.391C34.291,30.928 34.076,31.382 33.806,31.752C33.535,32.122 33.22,32.405 32.861,32.602C32.501,32.798 32.121,32.896 31.72,32.896C31.318,32.896 30.938,32.798 30.579,32.602C30.219,32.405 29.904,32.122 29.634,31.752C29.363,31.382 29.148,30.928 28.99,30.391C28.831,29.853 28.752,29.243 28.752,28.561ZM29.2,28.561C29.2,29.139 29.265,29.662 29.396,30.131C29.526,30.599 29.704,31.003 29.928,31.344C30.152,31.685 30.418,31.948 30.726,32.133C31.034,32.318 31.365,32.411 31.72,32.411C32.074,32.411 32.406,32.318 32.714,32.133C33.022,31.948 33.288,31.685 33.512,31.344C33.736,31.003 33.913,30.599 34.044,30.131C34.174,29.662 34.24,29.139 34.24,28.561C34.24,27.995 34.174,27.472 34.044,26.992C33.913,26.512 33.736,26.102 33.512,25.761C33.288,25.42 33.022,25.154 32.714,24.963C32.406,24.773 32.074,24.677 31.72,24.677C31.365,24.677 31.034,24.773 30.726,24.963C30.418,25.154 30.152,25.42 29.928,25.761C29.704,26.102 29.526,26.512 29.396,26.992C29.265,27.472 29.2,27.995 29.2,28.561Z" style="fill:white;fill-rule:nonzero;"/>
            <path d="M36.928,24.885L35.864,24.885L35.864,24.469L36.928,24.4L36.984,21.972L37.348,21.972L37.348,24.4L39.336,24.4L39.336,24.885L37.348,24.885L37.348,30.573C37.348,30.839 37.364,31.084 37.397,31.31C37.429,31.535 37.488,31.729 37.572,31.891C37.656,32.052 37.775,32.18 37.929,32.272C38.083,32.365 38.281,32.411 38.524,32.411C38.654,32.411 38.799,32.382 38.958,32.324C39.116,32.266 39.261,32.203 39.392,32.133L39.532,32.584C39.336,32.677 39.142,32.752 38.951,32.81C38.759,32.867 38.608,32.896 38.496,32.896C38.188,32.896 37.933,32.839 37.733,32.723C37.532,32.607 37.371,32.446 37.25,32.237C37.128,32.029 37.044,31.778 36.998,31.483C36.951,31.188 36.928,30.862 36.928,30.503L36.928,24.885Z" style="fill:white;fill-rule:nonzero;"/>
        </g>
    </g>
</svg>
