<?xml version="1.0" encoding="UTF-8" standalone="no"?>
<!DOCTYPE svg PUBLIC "-//W3C//DTD SVG 1.1//EN" "http://www.w3.org/Graphics/SVG/1.1/DTD/svg11.dtd">
<svg width="100%" height="100%" viewBox="0 0 64 64" version="1.1" xmlns="http://www.w3.org/2000/svg" xmlns:xlink="http://www.w3.org/1999/xlink" xml:space="preserve" xmlns:serif="http://www.serif.com/" style="fill-rule:evenodd;clip-rule:evenodd;stroke-linecap:round;stroke-linejoin:round;stroke-miterlimit:1.5;">
    <rect id="icon-m-location_3_" x="0" y="0" width="64" height="64" style="fill:white;fill-opacity:0;"/>
    <g id="g846" transform="matrix(1.28379,0,0,1.28379,-9.24903,-9.37632)">
        <path id="path833" d="M34.311,51.001C35.874,51.207 37.297,51.541 38.128,51.99C38.599,52.244 38.913,52.516 39.063,52.72C39.212,52.924 39.219,53.008 39.194,53.132C39.143,53.381 38.589,54.002 37.389,54.47C36.188,54.939 34.48,55.271 32.573,55.327C30.665,55.383 28.846,55.156 27.444,54.751C26.042,54.346 25.106,53.703 24.878,53.317C24.764,53.124 24.77,53.069 24.816,52.935C24.861,52.801 25.014,52.57 25.351,52.317C25.961,51.856 27.172,51.4 28.699,51.108L28.939,49.791C28.734,49.59 28.733,49.258 28.448,49.303C26.495,49.61 25.321,50.06 24.256,50.863C23.723,51.264 23.297,51.747 23.092,52.354C22.887,52.961 22.974,53.673 23.312,54.245C23.988,55.388 25.311,56.03 26.937,56.5C28.564,56.97 30.544,57.207 32.626,57.147C34.708,57.086 36.584,56.738 38.05,56.166C39.515,55.594 40.709,54.813 40.976,53.497C41.11,52.839 40.907,52.157 40.53,51.643C40.154,51.129 39.625,50.729 38.991,50.387C37.723,49.702 35.997,49.248 33.961,49.057C33.93,49.055 33.9,49.053 33.87,49.054L35.452,49.246C35.136,49.248 35.084,49.653 34.92,49.922" style="fill-opacity:0.5;fill-rule:nonzero;"/>
        <g id="icon-m-location" transform="matrix(0.929283,0,0,0.929283,2.26202,0.516492)">
            <path id="path2" d="M32,57.156C30.815,57.156 29.683,56.506 28.894,55.373C28.336,54.571 15.201,35.635 12.828,26.766C11.951,23.49 12.504,20.097 14.426,16.953C17.121,12.543 22.428,8.926 27.944,7.739C30.645,7.159 33.357,7.158 36.056,7.739C41.573,8.926 46.879,12.543 49.576,16.952C51.498,20.097 52.051,23.49 51.174,26.765C48.8,35.634 35.665,54.57 35.107,55.372C34.317,56.506 33.186,57.156 32,57.156ZM32,9.301C30.8,9.301 29.577,9.433 28.364,9.694C23.357,10.772 18.555,14.03 16.132,17.996C14.503,20.662 14.028,23.516 14.759,26.249C17.044,34.784 30.401,54.038 30.535,54.231C31.366,55.424 32.632,55.424 33.464,54.231C33.598,54.038 46.956,34.782 49.24,26.249C49.971,23.515 49.497,20.661 47.867,17.996C45.443,14.03 40.641,10.772 35.635,9.694C34.423,9.433 33.2,9.301 32,9.301ZM50.207,26.507L50.217,26.507L50.207,26.507Z" style="fill-rule:nonzero;"/>
        </g>
        <path id="path5" d="M31.999,34.307C26.948,34.307 22.84,30.199 22.84,25.149C22.84,20.098 26.948,15.99 31.999,15.99C37.05,15.99 41.157,20.098 41.157,25.149C41.157,30.199 37.05,34.307 31.999,34.307ZM31.999,17.581C27.826,17.581 24.431,20.976 24.431,25.149C24.431,29.321 27.826,32.717 31.999,32.717C36.172,32.717 39.568,29.321 39.568,25.149C39.568,20.977 36.172,17.581 31.999,17.581Z" style="fill-opacity:0.3;fill-rule:nonzero;"/>
    </g>
    <g transform="matrix(1,0,0,1,0,4)">
        <path d="M3.402,54.799C8.77,51.068 14.51,46.328 21.577,41.232C38.28,29.189 67.42,10.665 53.454,4.466C38.419,-2.208 -0.35,10.139 3.402,20.192C9.165,35.638 43.357,24.815 54.358,30.667C60.321,33.839 34.962,43.998 41.69,52.088C43.105,53.79 55.028,52.883 57.705,50.703" style="fill:none;stroke:rgb(77,77,77);stroke-width:4.35px;"/>
    </g>
</svg>
