<?xml version="1.0" encoding="UTF-8" standalone="no"?><!DOCTYPE svg PUBLIC "-//W3C//DTD SVG 1.1//EN" "http://www.w3.org/Graphics/SVG/1.1/DTD/svg11.dtd"><svg width="100%" height="100%" viewBox="0 0 356 356" version="1.1" xmlns="http://www.w3.org/2000/svg" xmlns:xlink="http://www.w3.org/1999/xlink" xml:space="preserve" xmlns:serif="http://www.serif.com/" style="fill-rule:evenodd;clip-rule:evenodd;stroke-linejoin:round;stroke-miterlimit:2;"><rect id="icon-m-cetificates_1_" x="0" y="0" width="355.556" height="355.556" style="fill:#fff;fill-opacity:0;"/><g id="g5"><path id="path3" d="M310.846,333.333l-266.136,0c-12.397,0 -22.488,-9.624 -22.488,-21.464l0,-268.182c0,-11.833 10.084,-21.465 22.488,-21.465l266.136,0c12.404,0 22.487,9.625 22.487,21.465l0,268.182c0,11.84 -10.083,21.464 -22.487,21.464Zm-266.136,-297.233c-4.382,0 -7.948,3.404 -7.948,7.587l-0,268.182c-0,4.182 3.566,7.586 7.948,7.586l266.136,0c4.382,0 7.948,-3.404 7.948,-7.586l-0,-268.182c-0,-4.183 -3.566,-7.587 -7.948,-7.587l-266.136,0Z" style="fill:#000003;fill-opacity:0.5;fill-rule:nonzero;"/><path id="path7" d="M160.674,251.881c-7.4,0 -14.527,-3.615 -19.562,-9.928l-50.072,-62.811c-2.544,-3.194 -2.019,-7.844 1.168,-10.387c3.186,-2.544 7.844,-2.019 10.387,1.168l50.073,62.818c2.24,2.809 5.079,4.354 7.999,4.354l0.015,0c2.92,-0.007 5.759,-1.567 7.991,-4.384l101.787,-128.689c2.528,-3.194 7.178,-3.749 10.38,-1.213c3.208,2.529 3.748,7.179 1.212,10.387l-101.779,128.69c-5.013,6.336 -12.147,9.988 -19.562,10.003c-0.007,-0.008 -0.022,-0.008 -0.037,-0.008Z" style="fill-rule:nonzero;"/></g></svg>