<?xml version="1.0" encoding="UTF-8" standalone="no"?>
<!-- Generator: Adobe Illustrator 17.0.1, SVG Export Plug-In . SVG Version: 6.00 Build 0)  -->

<svg
   xmlns:dc="http://purl.org/dc/elements/1.1/"
   xmlns:cc="http://creativecommons.org/ns#"
   xmlns:rdf="http://www.w3.org/1999/02/22-rdf-syntax-ns#"
   xmlns:svg="http://www.w3.org/2000/svg"
   xmlns="http://www.w3.org/2000/svg"
   xmlns:sodipodi="http://sodipodi.sourceforge.net/DTD/sodipodi-0.dtd"
   xmlns:inkscape="http://www.inkscape.org/namespaces/inkscape"
   version="1.1"
   id="Layer_1"
   x="0px"
   y="0px"
   width="64px"
   height="64px"
   viewBox="0 0 64 64"
   style="enable-background:new 0 0 64 64;"
   xml:space="preserve"
   sodipodi:docname="icon-blank.svg"
   inkscape:version="0.92.4 (5da689c313, 2019-01-14)"><metadata
   id="metadata15"><rdf:RDF><cc:Work
       rdf:about=""><dc:format>image/svg+xml</dc:format><dc:type
         rdf:resource="http://purl.org/dc/dcmitype/StillImage" /></cc:Work></rdf:RDF></metadata><defs
   id="defs13">
	
	
	
</defs><sodipodi:namedview
   pagecolor="#ffffff"
   bordercolor="#666666"
   borderopacity="1"
   objecttolerance="10"
   gridtolerance="10"
   guidetolerance="10"
   inkscape:pageopacity="0"
   inkscape:pageshadow="2"
   inkscape:window-width="1821"
   inkscape:window-height="1051"
   id="namedview11"
   showgrid="false"
   inkscape:zoom="3.6875"
   inkscape:cx="32"
   inkscape:cy="32"
   inkscape:window-x="90"
   inkscape:window-y="-9"
   inkscape:window-maximized="1"
   inkscape:current-layer="Layer_1" />
<g
   id="g834"><rect
     id="icon-m-cetificates_1_"
     style="opacity:0;fill:#ffffff"
     width="64"
     height="64"
     x="0"
     y="0" /><g
     style="opacity:0.6"
     id="g5">
		<path
   style="fill:#ffffff"
   d="M 49.947,52.98 H 14.052 c -1.672,0 -3.033,-1.36 -3.033,-3.033 V 12.052 c 0,-1.672 1.36,-3.033 3.033,-3.033 h 35.895 c 1.673,0 3.033,1.36 3.033,3.033 v 37.895 c 0,1.673 -1.36,3.033 -3.033,3.033 z m -35.895,-42 c -0.591,0 -1.072,0.481 -1.072,1.072 v 37.895 c 0,0.591 0.481,1.072 1.072,1.072 h 35.895 c 0.591,0 1.072,-0.481 1.072,-1.072 V 12.052 c 0,-0.591 -0.481,-1.072 -1.072,-1.072 z"
   id="path3"
   inkscape:connector-curvature="0" />
	</g></g>
</svg>