<?xml version="1.0" encoding="UTF-8" standalone="no"?>
<svg
   xmlns:dc="http://purl.org/dc/elements/1.1/"
   xmlns:cc="http://creativecommons.org/ns#"
   xmlns:rdf="http://www.w3.org/1999/02/22-rdf-syntax-ns#"
   xmlns:svg="http://www.w3.org/2000/svg"
   xmlns="http://www.w3.org/2000/svg"
   xmlns:sodipodi="http://sodipodi.sourceforge.net/DTD/sodipodi-0.dtd"
   xmlns:inkscape="http://www.inkscape.org/namespaces/inkscape"
   width="100%"
   height="100%"
   viewBox="0 0 600 750"
   version="1.1"
   xml:space="preserve"
   style="fill-rule:evenodd;clip-rule:evenodd;stroke-linejoin:round;stroke-miterlimit:2;"
   id="svg14"
   sodipodi:docname="icon-cover-red.svg"
   inkscape:version="0.92.4 (5da689c313, 2019-01-14)"><metadata
   id="metadata20"><rdf:RDF><cc:Work
       rdf:about=""><dc:format>image/svg+xml</dc:format><dc:type
         rdf:resource="http://purl.org/dc/dcmitype/StillImage" /><dc:title></dc:title></cc:Work></rdf:RDF></metadata><defs
   id="defs18">
        
        
        
        
        
        
        
    
            
        
            
        
            
        
            
        </defs><sodipodi:namedview
   pagecolor="#ffffff"
   bordercolor="#666666"
   borderopacity="1"
   objecttolerance="10"
   gridtolerance="10"
   guidetolerance="10"
   inkscape:pageopacity="0"
   inkscape:pageshadow="2"
   inkscape:window-width="1821"
   inkscape:window-height="1051"
   id="namedview16"
   showgrid="false"
   inkscape:zoom="1.2586667"
   inkscape:cx="156.66686"
   inkscape:cy="529.89979"
   inkscape:window-x="90"
   inkscape:window-y="-9"
   inkscape:window-maximized="1"
   inkscape:current-layer="svg14" />
    <path
   inkscape:connector-curvature="0"
   style="fill:#b22222;fill-opacity:0.50196081;stroke-width:1.0769999"
   d="m 482.52013,112.70569 c 0.58447,-2.08667 2.46605,-39.788472 3.78819,-77.613623 1.32227,-37.8240821 1.44956,-38.1129564 4.14932,-77.603023 21.6558,-7.733762 45.6929,-4.180269 76.18836,13.172787 7.38667,4.20314 18.50415,9.081799 24.70651,10.842913 6.20143,1.762308 14.98734,2.400937 14.98734,2.400937 0,0 -4.42134,6.8360655 -9.87284,12.0915982 -6.93831,6.6868921 -15.80998,12.2925646 -22.23361,14.0735468 -6.53604,1.812308 -19.93964,2.963181 -29.78622,2.556824 -27.86617,-3.0729633 -33.77724,3.477638 -42.02074,8.870308 -0.75089,27.393772 -0.53631,27.865653 -1.14551,51.250554 l -1.40538,44.440998 z"
   id="path845-4" /><path
   inkscape:connector-curvature="0"
   style="fill:#b22222;fill-rule:nonzero;stroke-width:1.0769999;fill-opacity:1"
   d="m 506.81616,-50.31555 c -6.11588,0.504416 -12.02137,1.803163 -17.76254,3.853826 l -2.59971,0.924872 -0.1806,2.743894 c -2.69954,39.4824538 -2.83054,39.8996728 -4.15277,77.733507 -0.66085,18.89087 -1.4614,37.764161 -2.16929,52.153966 -0.35388,7.195437 -0.68466,13.269465 -0.96095,17.654775 -0.13868,2.19272 -0.26837,3.97246 -0.37509,5.22487 -0.0517,0.62603 -0.10836,1.12469 -0.14656,1.45321 -0.0383,0.32744 -0.12844,0.66626 0.0168,0.14658 l -0.22329,0.78447 0.42244,3.6818 25.22522,6.52952 1.55963,-49.691479 0.0152,-0.01908 c 0.58264,-22.331393 0.44199,-25.040597 1.07634,-48.877185 3.47466,-2.369503 6.31691,-4.648016 10.80405,-6.091901 5.24722,-1.688282 13.0501,-2.587895 26.62849,-1.090938 l 0.13435,0.01819 0.14855,3e-4 c 10.32798,0.425923 23.56008,-0.622884 31.08052,-2.70858 7.64864,-2.121004 16.64955,-7.9702434 24.03198,-15.08534704 C 605.33338,-6.7068218 609.8646,-13.813502 609.8646,-13.813502 l 3.85574,-5.95487 -7.0723,-0.508939 c 0,0 -8.69921,-0.704949 -14.15533,-2.254651 -5.50982,-1.56414 -16.75188,-6.461025 -23.7778,-10.45839 -23.32915,-13.275317 -43.54978,-18.836427 -61.89861,-17.324126 z m 0.78868,8.309935 c 16.30347,-1.387113 34.54891,3.569145 56.96395,16.322753 7.74623,4.407968 18.73732,9.262103 25.63117,11.220316 3.65646,1.038537 5.18709,0.952895 8.33919,1.337071 -1.71941,2.304703 -2.31267,3.5305545 -4.97738,6.0998239 -6.49501,6.26094321 -15.25554,11.6164533 -20.45297,13.0583611 -5.55271,1.5390417 -19.12915,2.7802113 -28.49207,2.3942447 l 0.28474,0.034542 C 530.6137,6.8854904 521.53275,7.7192684 514.79674,9.886244 c -6.736,2.166976 -10.81184,5.58003 -14.66678,8.102656 l -1.84277,1.201185 -0.0617,2.202312 c -0.75046,27.416487 -0.5253,27.886071 -1.13436,51.243853 l -1.23239,39.17427 -8.79195,-2.2597 c 0.0952,-1.22073 0.19057,-2.51521 0.3019,-4.2755 0.28151,-4.45312 0.60959,-10.55069 0.96398,-17.770036 0.7108,-14.440006 1.51066,-33.338152 2.17315,-52.271487 1.26858,-36.307819 1.5772,-39.3341673 3.97812,-74.361536 4.28177,-1.334681 8.58738,-2.489972 13.12113,-2.875736 z"
   id="path930" /><path
   id="path2-9"
   d="M 3.7052163,61.91616 3.569409,61.9882 c -16.445559,8.72414 -22.731123,29.192832 -14.008977,45.63464 5.7150984,10.77332 18.1656565,22.38956 37.007993,34.52891 13.970108,9.0011 26.448797,14.94831 26.573056,15.00621 0.347596,0.1664 0.752412,0.15801 1.090588,-0.0214 0.0097,-0.005 0.01932,-0.0103 0.02899,-0.0154 0.343216,-0.19583 0.568471,-0.54919 0.608482,-0.94185 0.01444,-0.14523 1.452776,-14.88532 1.500613,-32.01059 C 56.436281,101.05638 54.072129,84.818557 49.345142,75.907884 40.622996,59.466082 20.150239,53.192305 3.7052163,61.91616 Z M 33.671567,85.151091 c 4.046415,7.627751 1.134731,17.130759 -6.493557,21.177459 -7.628824,4.04698 -17.129277,1.12844 -21.1756925,-6.499309 -4.046415,-7.627751 -1.1324201,-17.125105 6.4964045,-21.17209 7.628287,-4.046699 17.12643,-1.133811 21.172845,6.49394 z"
   style="fill:#b22222;fill-opacity:0.50196081;stroke-width:0.60764146"
   inkscape:connector-curvature="0" /><path
   id="path926"
   d="m 1.6017294,58.279002 c -18.4558284,9.790558 -25.5394154,32.85619 -15.7494254,51.310948 6.3130906,11.90058 19.2851698,23.74916 38.443923,36.09209 7.108731,4.57939 13.809603,8.36401 18.76546,11.02455 4.950862,2.65631 7.732701,3.987 8.28097,4.24643 l 0.0021,-0.001 c 1.541435,0.72995 3.343724,0.6887 4.852634,-0.11176 0.007,-0.004 0.07461,-0.0396 0.13457,-0.0783 1.524241,-0.86361 2.539615,-2.42715 2.711835,-4.16934 l 0.0014,-0.008 3.74e-4,-0.007 c -0.01717,0.16731 1.46941,-15.05235 1.518288,-32.40516 0.06794,-23.40201 -2.06832,-39.973961 -7.512899,-50.237339 C 43.26097,55.480366 20.189981,48.411316 1.7346891,58.20159 Z m 3.9325117,7.413035 0.1352705,-0.07176 C 20.104265,57.962844 37.982712,63.446146 45.637014,77.874994 c 4.009396,7.557969 6.598056,23.456576 6.533642,46.279146 -0.035,13.03265 -0.739279,22.43082 -1.141804,27.20479 -1.427446,-0.71476 -1.565708,-0.74459 -3.997319,-2.04784 -4.808235,-2.58064 -11.330069,-6.26764 -18.188598,-10.68398 l 0.0011,-5.7e-4 C 10.318624,126.69049 -1.6148705,115.30208 -6.7319766,105.65601 -14.386279,91.227163 -8.9005121,73.349472 5.5342411,65.692037 Z m 4.9962639,9.256197 C 0.89087491,80.061923 -2.8166849,92.16073 2.2947261,101.79607 c 5.1142585,9.6407 17.2079489,13.35029 26.8475799,8.2366 9.63963,-5.11369 13.351648,-17.207985 8.237389,-26.848689 -5.111411,-9.635336 -17.20956,-13.349436 -26.84919,-8.235747 z m 3.935359,7.418404 c 5.617482,-2.979995 12.518467,-0.86295 15.497038,4.751848 2.981419,5.620165 0.864373,12.52115 -4.753108,15.501144 -5.616945,2.97971 -12.518466,0.86295 -15.4998851,-4.757215 C 6.7313374,92.247618 8.8489199,85.346349 14.465864,82.366638 Z"
   style="fill:#b22222;fill-rule:nonzero;stroke-width:0.60764146;fill-opacity:1"
   inkscape:connector-curvature="0" /><path
   inkscape:connector-curvature="0"
   style="fill:#b22222;stroke-width:1.0769999;fill-opacity:1"
   d="M 323.62454,570.83665 C 295.20233,571.64773 260.61129,566.70991 221.09137,556.20071 169.56441,542.49874 119.07257,511.3915 85.005895,472.36144 58.963285,442.52288 40.14957,408.53008 31.220142,375.17781 c -7.781329,-29.0621 -10.733135,-59.71144 -8.50702,-88.31627 2.205903,-28.3369 7.169173,-50.47061 18.229607,-81.29345 7.813545,-21.77235 10.695884,-28.56735 19.648728,-46.3152 8.81255,-17.46832 13.578268,-25.71524 24.225387,-41.92407 20.782406,-31.634766 33.721296,-45.518875 54.887926,-58.895446 13.50692,-8.536543 32.21923,-15.459927 55.66776,-20.598155 14.44529,-3.164255 94.18733,-12.345035 106.12011,-12.218152 11.60844,0.125071 37.61027,2.028674 47.80783,3.500507 28.161,4.064663 64.70822,15.961058 103.57557,33.717306 37.82161,17.277827 46.09256,23.339499 56.48807,41.39868 3.80713,6.61286 5.96645,12.57355 6.62018,18.27119 0.34903,3.04196 0.0599,3.87625 -2.0366,5.86106 -3.93295,3.72297 -9.95206,7.33839 -20.28888,12.18312 -5.32057,2.49457 -10.62017,5.53094 -11.77603,6.74763 -1.15693,1.2168 -2.59621,2.26871 -3.19968,2.33795 -0.6024,0.0691 -2.88346,-2.38908 -5.06706,-5.46229 -11.92879,-16.78726 -31.84893,-35.81985 -46.04376,-43.9933 C 417.26025,94.241944 348.29852,68.741312 326.16577,62.680858 291.83349,53.280601 265.02814,49.617607 237.67705,50.589818 223.0282,51.110629 214.54713,52.599735 195.49704,57.996482 176.49211,63.38046 163.69386,69.504952 143.45699,82.897343 120.04945,98.389116 99.580353,119.99935 83.451513,146.24574 50.523866,199.8344 37.321624,274.20708 49.095396,339.78533 c 8.819231,49.11531 21.987745,79.93883 49.393178,115.60831 9.622836,12.52478 22.495396,24.43279 33.472976,30.96444 12.42728,7.39409 68.23398,33.74606 90.42871,42.69928 32.87272,13.26113 66.07162,21.02223 93.9524,21.96442 31.11729,1.05107 78.97694,-8.91413 110.31133,-22.9684 9.31102,-4.17633 34.08027,-20.7252 42.9665,-28.70773 9.01404,-8.09693 27.12526,-30.00035 34.509,-41.73372 10.71105,-17.02162 20.54844,-39.57906 25.82854,-59.22542 6.27249,-23.33654 9.26694,-41.73957 10.35343,-63.62902 1.32272,-26.63332 0.008,-45.1219 -4.73583,-66.62534 -1.4301,-6.48341 -3.34094,-16.3915 -4.24454,-22.0182 -2.0537,-12.76882 -2.9969,-15.07481 -6.48535,-15.85836 -3.82579,-0.86084 -7.84352,-0.2199 -17.20038,2.74429 -11.47093,3.63387 -13.55401,3.98778 -60.7333,10.31159 -52.94775,7.09733 -72.30561,10.97376 -96.95998,19.41581 -5.73387,1.9631 -13.62909,5.07179 -17.54454,6.90648 -16.15752,7.5723 -21.38718,10.24507 -22.3296,11.41342 -1.32785,1.64511 0.38331,5.34383 5.21067,11.25857 5.67504,6.95359 19.19396,26.62089 25.66327,37.33178 18.5813,30.76727 31.01201,62.40718 39.5411,100.64141 2.56354,11.49617 2.41999,11.96469 -5.68071,18.57356 -10.39577,8.47878 -11.76249,8.60416 -15.42637,1.40681 -1.26822,-2.49311 -4.39792,-8.41726 -6.95491,-13.16695 -4.9375,-9.17057 -15.40381,-33.81816 -19.74407,-46.49483 -1.43473,-4.19007 -4.07815,-11.95114 -5.87495,-17.24661 -4.7549,-14.01345 -13.42857,-36.18908 -18.25346,-46.66477 -6.80534,-14.77336 -20.25245,-35.47768 -23.44953,-36.10277 -3.16268,-0.61821 -36.6112,15.94758 -61.8093,30.6106 -21.32626,12.41055 -25.04853,15.05021 -37.76844,26.78009 -29.27009,26.99099 -41.72718,35.45586 -56.2448,38.21647 -5.97933,1.13702 -6.50862,1.09693 -9.95878,-0.75122 -3.0158,-1.61505 -4.77956,-3.69356 -10.24395,-12.07084 -3.63057,-5.56532 -8.21746,-11.51958 -10.192681,-13.23017 -1.974273,-1.71179 -3.627973,-3.44519 -3.674747,-3.85285 -0.181694,-1.58357 1.058584,-2.50857 23.492038,-17.50482 5.06843,-3.38818 12.5823,-7.87433 16.6977,-9.96936 11.52906,-5.86721 45.1323,-18.77903 81.02848,-31.1322 21.84319,-7.51785 33.5541,-11.92292 46.69923,-17.56578 11.8557,-5.08947 16.98102,-8.10476 16.16188,-9.50895 -0.29917,-0.50988 -3.185,-5.68799 -6.41637,-11.50616 -5.88888,-10.60295 -11.88631,-20.73489 -25.17857,-42.5367 -8.97094,-14.71351 -20.7579,-35.47063 -25.10524,-44.21241 -7.25461,-14.58847 -17.56383,-43.06349 -18.47954,-51.04447 l -0.47707,-4.15794 3.14606,0.49219 c 1.7297,0.26985 4.61522,0.0786 6.41112,-0.42555 13.29658,-3.7371 19.56572,-4.98434 21.62979,-4.30405 3.45094,1.13692 6.71935,10.15968 18.88253,52.11916 13.62547,47.00389 16.94626,55.90681 29.7571,79.77698 11.56272,21.54278 12.07557,21.94033 20.63776,15.99941 14.79001,-10.25999 68.71097,-34.50832 100.16002,-45.04061 26.85661,-8.99502 107.28035,-32.14198 119.31482,-34.34125 8.05487,-1.47164 8.77075,-1.1375 11.7427,5.47146 3.72656,8.29157 17.40554,45.22702 21.17132,57.16738 6.47533,20.53292 12.15767,47.23084 14.68108,68.97821 2.04067,17.56838 1.69825,48.86237 -0.7283,67.094 -5.21804,39.20662 -32.09766,91.51054 -64.8206,126.13492 -15.31168,16.2009 -33.49813,28.71844 -54.21968,37.31958 -25.92879,10.76074 -99.45187,26.43918 -127.78013,27.24708 z"
   id="path817" /><path
   id="path2-9-1"
   d="m 250.51923,423.60319 0.1486,0.0394 c 17.99413,4.77264 28.75235,23.28579 23.98079,41.27581 -3.12651,11.78779 -12.62253,25.92211 -28.22575,42.01362 -11.56839,11.93131 -22.3758,20.55029 -22.48372,20.63482 -0.30087,0.24081 -0.69707,0.32432 -1.06709,0.22618 -0.0106,-0.003 -0.0212,-0.006 -0.0317,-0.008 -0.37865,-0.113 -0.67808,-0.40617 -0.80599,-0.77956 -0.047,-0.13819 -4.78642,-14.16945 -8.71175,-30.83886 -5.29918,-22.49677 -6.67419,-38.84808 -4.08824,-48.59782 4.77155,-17.99002 23.29132,-28.73768 41.28487,-23.96519 z m -23.92509,29.41826 c -2.21364,8.34601 2.77473,16.94259 11.12133,19.15638 8.34718,2.21395 16.93972,-2.78052 19.15336,-11.12653 2.21364,-8.34601 -2.77571,-16.93656 -11.12289,-19.15051 -8.3466,-2.21379 -16.93817,2.77465 -19.1518,11.12066 z"
   style="fill:#b22222;fill-opacity:0.50196081;stroke-width:0.60764146"
   inkscape:connector-curvature="0" /><path
   id="path926-4"
   d="m 251.74427,419.58413 c 20.1937,5.35604 32.31738,26.21789 26.96165,46.41041 -3.45365,13.02119 -13.40501,27.49994 -29.27032,43.86141 -5.8868,6.07046 -11.55635,11.27441 -15.78083,14.98827 -4.22057,3.70861 -6.62873,5.63479 -7.10399,6.01165 l -0.002,-6.2e-4 c -1.33605,1.0601 -3.10085,1.42813 -4.75184,0.99023 -0.008,-0.002 -0.0816,-0.0217 -0.1488,-0.0458 -1.68023,-0.49594 -3.02335,-1.78887 -3.58569,-3.44679 l -0.003,-0.007 -0.002,-0.007 c 0.0546,0.15907 -4.84046,-14.32837 -8.81834,-31.21917 -5.36648,-22.77866 -7.03915,-39.4038 -4.06063,-50.63362 5.35573,-20.19252 26.22609,-32.30326 46.4192,-26.94738 z m -2.15133,8.11107 -0.148,-0.0392 c -15.79399,-4.18909 -31.96591,5.20104 -36.15328,20.98856 -2.19339,8.26966 -1.11387,24.34142 4.11799,46.55631 2.98588,12.68604 5.80047,21.68047 7.27379,26.23921 1.22847,-1.01949 1.35638,-1.07986 3.42963,-2.89998 4.09879,-3.60261 9.61606,-8.67093 15.2961,-14.52591 l -10e-4,-3.1e-4 c 15.34055,-15.82171 24.38455,-29.61701 27.18392,-40.17139 4.18738,-15.78753 -5.20498,-31.95815 -20.99897,-36.14724 z m -2.76997,10.14727 c 10.54733,2.79751 16.89883,13.74217 14.10257,24.28481 -2.79781,10.5485 -13.73704,16.90081 -24.28437,14.10331 -10.54734,-2.7975 -16.90215,-13.73676 -14.10433,-24.28527 2.79625,-10.54264 13.7388,-16.90035 24.28613,-14.10285 z m -2.15288,8.11695 c -6.14645,-1.63024 -12.3886,1.99481 -14.01807,8.13831 -1.63102,6.14939 1.99403,12.39154 8.14048,14.02178 6.14585,1.63009 12.3886,-1.9948 14.01962,-8.14418 1.62946,-6.14351 -1.99618,-12.38582 -8.14203,-14.01591 z"
   style="fill:#b22222;fill-rule:nonzero;stroke-width:0.60764146;fill-opacity:1"
   inkscape:connector-curvature="0" />
</svg>