<?xml version="1.0" encoding="UTF-8" standalone="no"?>
<!-- Generator: Adobe Illustrator 19.0.0, SVG Export Plug-In . SVG Version: 6.00 Build 0)  -->

<svg
   xmlns:dc="http://purl.org/dc/elements/1.1/"
   xmlns:cc="http://creativecommons.org/ns#"
   xmlns:rdf="http://www.w3.org/1999/02/22-rdf-syntax-ns#"
   xmlns:svg="http://www.w3.org/2000/svg"
   xmlns="http://www.w3.org/2000/svg"
   xmlns:sodipodi="http://sodipodi.sourceforge.net/DTD/sodipodi-0.dtd"
   xmlns:inkscape="http://www.inkscape.org/namespaces/inkscape"
   version="1.1"
   id="Layer_1"
   x="0px"
   y="0px"
   viewBox="0 0 32 32"
   style="enable-background:new 0 0 32 32;"
   xml:space="preserve"
   sodipodi:docname="icon-cover-copy-black.svg"
   inkscape:version="0.92.4 (5da689c313, 2019-01-14)"><metadata
   id="metadata49"><rdf:RDF><cc:Work
       rdf:about=""><dc:format>image/svg+xml</dc:format><dc:type
         rdf:resource="http://purl.org/dc/dcmitype/StillImage" /><dc:title /></cc:Work></rdf:RDF></metadata><defs
   id="defs47">
	
	
	
	
	
	
	
	
	
	
	
	

		
	
		
	
		
	</defs><sodipodi:namedview
   pagecolor="#ffffff"
   bordercolor="#666666"
   borderopacity="1"
   objecttolerance="10"
   gridtolerance="10"
   guidetolerance="10"
   inkscape:pageopacity="0"
   inkscape:pageshadow="2"
   inkscape:window-width="1821"
   inkscape:window-height="1051"
   id="namedview45"
   showgrid="false"
   inkscape:zoom="20.85965"
   inkscape:cx="8.2492376"
   inkscape:cy="12.737781"
   inkscape:window-x="90"
   inkscape:window-y="-9"
   inkscape:window-maximized="1"
   inkscape:current-layer="Layer_1" />

<g
   id="g1424"><rect
     y="0"
     x="0"
     height="32"
     width="32"
     id="rect829"
     style="opacity:1;fill:#000000;fill-opacity:0;fill-rule:nonzero;stroke:none;stroke-width:2;stroke-linecap:round;stroke-linejoin:round;stroke-miterlimit:4;stroke-dasharray:none;stroke-dashoffset:0;stroke-opacity:1" /><path
     id="path2-6"
     d="m 11.755859,6.5 c -0.784193,0 -1.419922,0.6357288 -1.419921,1.4199219 V 29.691406 c 0,0.784193 0.635728,1.419922 1.419921,1.419922 h 16.091797 c 0.784193,0 1.419922,-0.635729 1.419922,-1.419922 v -15.61914 h -6.152344 c -0.599424,0 -1.419921,-0.638983 -1.419922,-1.419922 V 6.5 Z m 2.576172,10.736328 h 11.617188 c 0.7756,0 1.40039,0.624791 1.40039,1.400391 v 0.699219 c 0,0.775598 -0.62479,1.40039 -1.40039,1.40039 H 14.332031 c -0.7756,0 -1.398437,-0.624792 -1.398437,-1.40039 v -0.699219 c 0,-0.7756 0.622837,-1.400391 1.398437,-1.400391 z m 0,5.980469 h 11.617188 c 0.7756,0 1.40039,0.624791 1.40039,1.400391 v 0.699218 c 0,0.7756 -0.62479,1.400391 -1.40039,1.400391 H 14.332031 c -0.7756,0 -1.398437,-0.624791 -1.398437,-1.400391 v -0.699218 c 0,-0.7756 0.622837,-1.400391 1.398437,-1.400391 z"
     style="fill:#000000;fill-opacity:1;stroke-width:1"
     inkscape:connector-curvature="0" /><path
     inkscape:connector-curvature="0"
     id="rect846-8"
     d="m 21.695585,6.4995561 v 6.1528549 c 0,0.780939 0.820466,1.419889 1.419889,1.419889 h 6.152854 v -2.251625 c -2e-6,-0.376563 -0.149489,-0.737744 -0.415752,-1.004021 L 24.951231,6.9154239 C 24.684954,6.6491604 24.323887,6.4995578 23.947324,6.4995561 Z"
     style="opacity:1;fill:#000000;fill-opacity:0.50196078;fill-rule:nonzero;stroke:none;stroke-width:2;stroke-linecap:round;stroke-linejoin:round;stroke-miterlimit:4;stroke-dasharray:none;stroke-dashoffset:0;stroke-opacity:1" /><path
     inkscape:connector-curvature="0"
     id="path953"
     d="m 4.1835938,0.8203125 c -0.7841931,0 -1.4199219,0.6357288 -1.4199219,1.4199219 V 24.011719 c 0,0.784193 0.6357288,1.419922 1.4199219,1.419922 H 8.4433594 12 V 6.5 h 9.695312 V 4.6054688 2.2402344 c 0,-0.7841931 -0.635728,-1.4199219 -1.419921,-1.4199219 z"
     style="fill:#000000;fill-opacity:0.50196078;stroke-width:1" /><rect
     id="icon-cover-dialer_3_"
     style="opacity:0;fill:#000000;fill-opacity:1"
     width="32"
     height="32"
     x="0"
     y="0" /><path
     id="rect937-5"
     d="m 14.332031,17.236328 c -0.7756,0 -1.398437,0.624791 -1.398437,1.400391 v 0.699219 c 0,0.775599 0.622837,1.40039 1.398437,1.40039 h 11.617188 c 0.7756,0 1.40039,-0.624791 1.40039,-1.40039 v -0.699219 c 0,-0.7756 -0.62479,-1.400391 -1.40039,-1.400391 z m 0,5.980469 c -0.7756,0 -1.398437,0.624791 -1.398437,1.400391 v 0.699218 c 0,0.7756 0.622837,1.400391 1.398437,1.400391 h 11.617188 c 0.7756,0 1.40039,-0.624791 1.40039,-1.400391 v -0.699218 c 0,-0.7756 -0.62479,-1.400391 -1.40039,-1.400391 z"
     style="opacity:1;fill:#000000;fill-opacity:0.50196078;fill-rule:nonzero;stroke:none;stroke-width:2;stroke-linecap:round;stroke-linejoin:round;stroke-miterlimit:4;stroke-dasharray:none;stroke-dashoffset:0;stroke-opacity:1"
     inkscape:connector-curvature="0" /></g></svg>