<?xml version="1.0" encoding="UTF-8" standalone="no"?>
<!DOCTYPE svg PUBLIC "-//W3C//DTD SVG 1.1//EN" "http://www.w3.org/Graphics/SVG/1.1/DTD/svg11.dtd">
<svg width="100%" height="100%" viewBox="0 0 64 64" version="1.1" xmlns="http://www.w3.org/2000/svg" xmlns:xlink="http://www.w3.org/1999/xlink" xml:space="preserve" xmlns:serif="http://www.serif.com/" style="fill-rule:evenodd;clip-rule:evenodd;stroke-linecap:round;stroke-linejoin:round;stroke-miterlimit:1.5;">
    <rect id="icon-m-location_3_" x="0" y="0" width="64" height="64" style="fill:white;fill-opacity:0;"/>
    <g transform="matrix(1.32244,0,0,1.32244,-10.3182,-10.3182)">
        <path id="path833" d="M29.717,50.043C31.28,50.249 32.704,50.583 33.535,51.031C34.006,51.286 34.32,51.558 34.469,51.762C34.619,51.965 34.626,52.049 34.601,52.174C34.55,52.423 33.996,53.043 32.795,53.512C31.595,53.981 29.887,54.313 27.979,54.369C26.072,54.424 24.252,54.197 22.851,53.793C21.449,53.388 20.513,52.745 20.285,52.359C20.17,52.166 20.177,52.111 20.222,51.977C20.268,51.843 20.421,51.611 20.757,51.358C21.368,50.898 22.579,50.441 24.105,50.15L25.017,48.497C24.811,48.296 24.523,48.203 24.239,48.248C22.285,48.556 20.728,49.102 19.663,49.904C19.13,50.306 18.703,50.788 18.499,51.395C18.294,52.002 18.381,52.715 18.719,53.286C19.395,54.43 20.717,55.072 22.344,55.541C23.971,56.011 25.951,56.249 28.033,56.188C30.114,56.128 31.991,55.779 33.456,55.207C34.922,54.635 36.115,53.854 36.383,52.538C36.517,51.88 36.314,51.199 35.937,50.685C35.56,50.17 35.032,49.77 34.398,49.428C33.13,48.744 31.404,48.289 29.367,48.099C29.337,48.096 29.307,48.095 29.277,48.095L29.277,48.095C28.961,48.098 28.669,48.263 28.505,48.533" style="fill-opacity:0.5;fill-rule:nonzero;"/>
        <path id="path2-7" d="M28.448,7.837C25.975,7.728 23.613,7.873 21.919,8.313C20.473,8.668 18.946,9.182 17.686,9.698C17.057,9.956 16.494,10.214 16.034,10.462C15.579,10.707 15.244,10.886 14.927,11.263C14.588,11.656 14.681,11.813 14.676,11.949C14.671,12.088 14.679,12.21 14.692,12.351C14.719,12.633 14.773,12.982 14.854,13.428C15.015,14.321 15.285,15.59 15.666,17.258C16.427,20.593 17.629,25.513 19.27,32.047C19.27,32.047 19.271,32.048 19.272,32.048C20.626,37.421 21.887,42.42 22.81,46.109C23.271,47.953 23.647,49.47 23.908,50.539C24.038,51.074 24.141,51.497 24.208,51.79C24.242,51.936 24.268,52.05 24.283,52.124C24.289,52.151 24.291,52.164 24.294,52.177C24.294,52.179 24.294,52.18 24.294,52.181C24.34,52.641 24.729,52.996 25.191,53L29.909,53.048C29.913,53.048 29.916,53.048 29.92,53.048C30.419,53.048 30.83,52.637 30.83,52.138C30.83,52.065 30.821,51.991 30.803,51.92L27.75,39.617C27.75,39.616 27.75,39.616 27.75,39.615L24.793,27.879L26.174,26.621C28.126,24.894 29.645,24.28 34.791,23.225C39.038,22.372 41.987,21.081 44.448,18.875C45.429,18.024 46.429,16.781 47.277,15.504C48.127,14.222 48.813,12.958 49.077,11.882C49.078,11.878 49.078,11.874 49.079,11.869L49.308,10.883C49.324,10.815 49.332,10.746 49.332,10.676C49.332,10.177 48.921,9.766 48.422,9.766C48.373,9.766 48.325,9.77 48.277,9.778L46.15,10.119C43.879,10.461 39.921,10.043 35.651,8.887C35.65,8.887 35.65,8.887 35.649,8.887C33.515,8.312 30.927,7.947 28.448,7.837ZM28.328,9.7C30.703,9.799 33.229,10.12 35.177,10.645L35.175,10.643C39.603,11.842 43.656,12.336 46.42,11.919C46.423,11.919 46.426,11.918 46.429,11.917L47.126,11.805C46.897,12.482 46.45,13.459 45.761,14.498C44.98,15.675 44.019,16.839 43.248,17.506C43.244,17.51 43.24,17.513 43.236,17.517C41.043,19.485 38.499,20.624 34.432,21.441C34.431,21.441 34.43,21.442 34.428,21.443C29.201,22.514 27.134,23.341 24.967,25.258C24.964,25.261 24.961,25.264 24.958,25.267L23.165,26.9C22.917,27.126 22.813,27.471 22.895,27.796L25.985,40.058L28.754,51.216L25.934,51.188C25.866,50.897 25.788,50.564 25.676,50.107C25.414,49.031 25.036,47.512 24.574,45.666C23.651,41.975 22.39,36.976 21.036,31.604L21.036,31.602C19.397,25.076 18.194,20.161 17.439,16.852C17.062,15.198 16.795,13.944 16.643,13.104C16.578,12.742 16.545,12.496 16.522,12.303C16.616,12.235 16.656,12.194 16.899,12.063C17.277,11.859 17.79,11.621 18.376,11.381C19.548,10.9 21.015,10.408 22.353,10.08C22.358,10.079 22.363,10.078 22.367,10.076C23.725,9.722 25.952,9.6 28.328,9.7L28.328,9.7Z" style="fill-rule:nonzero;"/>
    </g>
    <g transform="matrix(1,0,0,1,0,4)">
        <path d="M3.402,54.799C8.77,51.068 14.51,46.328 21.577,41.232C38.28,29.189 67.42,10.665 53.454,4.466C38.419,-2.208 -0.35,10.139 3.402,20.192C9.165,35.638 43.357,24.815 54.358,30.667C60.321,33.839 34.962,43.998 41.69,52.088C43.105,53.79 55.028,52.883 57.705,50.703" style="fill:none;stroke:rgb(77,77,77);stroke-width:4.35px;"/>
    </g>
</svg>
