<?xml version="1.0" encoding="UTF-8" standalone="no"?>
<!-- Generator: Adobe Illustrator 22.1.0, SVG Export Plug-In . SVG Version: 6.00 Build 0)  -->

<svg
   xmlns:dc="http://purl.org/dc/elements/1.1/"
   xmlns:cc="http://creativecommons.org/ns#"
   xmlns:rdf="http://www.w3.org/1999/02/22-rdf-syntax-ns#"
   xmlns:svg="http://www.w3.org/2000/svg"
   xmlns="http://www.w3.org/2000/svg"
   xmlns:sodipodi="http://sodipodi.sourceforge.net/DTD/sodipodi-0.dtd"
   xmlns:inkscape="http://www.inkscape.org/namespaces/inkscape"
   version="1.1"
   id="Layer_1"
   x="0px"
   y="0px"
   width="64"
   height="64"
   viewBox="0 0 64 64"
   style="enable-background:new 0 0 64 64;"
   xml:space="preserve"
   sodipodi:docname="icon-waypt-black.svg"
   inkscape:version="0.92.4 (5da689c313, 2019-01-14)"><metadata
   id="metadata14"><rdf:RDF><cc:Work
       rdf:about=""><dc:format>image/svg+xml</dc:format><dc:type
         rdf:resource="http://purl.org/dc/dcmitype/StillImage" /><dc:title></dc:title></cc:Work></rdf:RDF></metadata><defs
   id="defs12">
	
	
	
</defs><sodipodi:namedview
   pagecolor="#ffffff"
   bordercolor="#666666"
   borderopacity="1"
   objecttolerance="10"
   gridtolerance="10"
   guidetolerance="10"
   inkscape:pageopacity="0"
   inkscape:pageshadow="2"
   inkscape:window-width="1821"
   inkscape:window-height="1051"
   id="namedview10"
   showgrid="false"
   inkscape:zoom="5.2149125"
   inkscape:cx="30.679444"
   inkscape:cy="41.766537"
   inkscape:window-x="90"
   inkscape:window-y="-9"
   inkscape:window-maximized="1"
   inkscape:current-layer="Layer_1" />

<g
   id="g846"><rect
     id="icon-m-location_3_"
     style="opacity:0;fill:#ffffff"
     width="64"
     height="64"
     x="0"
     y="0" /><path
     sodipodi:nodetypes="csssscsccscccccsscsssscccc"
     inkscape:connector-curvature="0"
     id="path833"
     d="m 34.310604,51.001484 c 1.562981,0.205737 2.986723,0.539847 3.817189,0.988062 0.471652,0.254557 0.785345,0.526472 0.934749,0.730384 0.149404,0.203912 0.156853,0.287686 0.131504,0.412285 -0.0507,0.249197 -0.605112,0.869561 -1.805523,1.338148 -1.20041,0.468587 -2.908334,0.800897 -4.815913,0.856557 -1.907579,0.05566 -3.727033,-0.171062 -5.128681,-0.575777 -1.401647,-0.404714 -2.337709,-1.047901 -2.566118,-1.434111 -0.114204,-0.193105 -0.107392,-0.248081 -0.0622,-0.382074 0.04519,-0.133994 0.198888,-0.365325 0.534903,-0.618428 0.610803,-0.460087 1.821535,-0.916931 3.348038,-1.208421 l 0.240495,-1.317117 c -0.205536,-0.201316 -0.206532,-0.53327 -0.490729,-0.48849 -1.953204,0.30796 -3.127104,0.757868 -4.19249,1.560369 -0.532693,0.401251 -0.959272,0.884003 -1.163993,1.490978 -0.204723,0.606975 -0.117721,1.319173 0.220358,1.890824 0.67616,1.143302 1.99834,1.785366 3.625263,2.255127 1.626923,0.46976 3.606599,0.707606 5.688465,0.64686 2.081866,-0.06074 3.958239,-0.408911 5.423678,-0.980953 1.465439,-0.572043 2.659135,-1.353189 2.926868,-2.669189 0.13387,-0.658 -0.0692,-1.339098 -0.446051,-1.853505 -0.376901,-0.514407 -0.904946,-0.914215 -1.53896,-1.256402 -1.268027,-0.684374 -2.994526,-1.139103 -5.030941,-1.329263 -0.03013,-0.0027 -0.06038,-0.0039 -0.09063,-0.0035 l 1.582003,0.191753 c -0.315488,0.0022 -0.367643,0.40729 -0.531561,0.67686"
     style="color:#000000;font-style:normal;font-variant:normal;font-weight:normal;font-stretch:normal;font-size:medium;line-height:normal;font-family:sans-serif;font-variant-ligatures:normal;font-variant-position:normal;font-variant-caps:normal;font-variant-numeric:normal;font-variant-alternates:normal;font-feature-settings:normal;text-indent:0;text-align:start;text-decoration:none;text-decoration-line:none;text-decoration-style:solid;text-decoration-color:#000000;letter-spacing:normal;word-spacing:normal;text-transform:none;writing-mode:lr-tb;direction:ltr;text-orientation:mixed;dominant-baseline:auto;baseline-shift:baseline;text-anchor:start;white-space:normal;shape-padding:0;clip-rule:nonzero;display:inline;overflow:visible;visibility:visible;opacity:1;isolation:auto;mix-blend-mode:normal;color-interpolation:sRGB;color-interpolation-filters:linearRGB;solid-color:#000000;solid-opacity:1;vector-effect:none;fill:#000000;fill-opacity:0.50196081;fill-rule:nonzero;stroke:none;stroke-width:2;stroke-linecap:round;stroke-linejoin:round;stroke-miterlimit:4;stroke-dasharray:none;stroke-dashoffset:0;stroke-opacity:1;color-rendering:auto;image-rendering:auto;shape-rendering:auto;text-rendering:auto;enable-background:accumulate" /><g
     transform="matrix(0.92928273,0,0,0.92928273,2.2620234,0.51649239)"
     id="icon-m-location"
     style="stroke-width:1.0760988;fill:#000000;fill-opacity:1">
		<path
   style="fill:#000000;stroke-width:1.0760988;fill-opacity:1"
   d="m 32,57.156 c -1.185,0 -2.317,-0.65 -3.106,-1.783 -0.558,-0.802 -13.693,-19.738 -16.066,-28.607 -0.877,-3.276 -0.324,-6.669 1.598,-9.813 2.695,-4.41 8.002,-8.027 13.518,-9.214 2.701,-0.58 5.413,-0.581 8.112,0 5.517,1.187 10.823,4.804 13.52,9.213 1.922,3.145 2.475,6.538 1.598,9.813 v 0 C 48.8,35.634 35.665,54.57 35.107,55.372 34.317,56.506 33.186,57.156 32,57.156 Z M 32,9.301 c -1.2,0 -2.423,0.132 -3.636,0.393 -5.007,1.078 -9.809,4.336 -12.232,8.302 -1.629,2.666 -2.104,5.52 -1.373,8.253 2.285,8.535 15.642,27.789 15.776,27.982 0.831,1.193 2.097,1.193 2.929,0 0.134,-0.193 13.492,-19.449 15.776,-27.982 v 0 C 49.971,23.515 49.497,20.661 47.867,17.996 45.443,14.03 40.641,10.772 35.635,9.694 34.423,9.433 33.2,9.301 32,9.301 Z m 18.207,17.206 h 0.01 z"
   id="path2"
   inkscape:connector-curvature="0" />
	</g><path
     style="opacity:0.6;fill:#000000;stroke-width:1;fill-opacity:0.50196081"
     d="m 31.999071,34.307071 c -5.050652,0 -9.159011,-4.108359 -9.159011,-9.158081 0,-5.050652 4.108359,-9.159011 9.159011,-9.159011 5.050651,0 9.158081,4.108359 9.158081,9.159011 0,5.049722 -4.10743,9.158081 -9.158081,9.158081 z m 0,-16.72616 c -4.173409,0 -7.568079,3.39467 -7.568079,7.568079 0,4.172479 3.39467,7.568078 7.568079,7.568078 4.173409,0 7.569008,-3.395599 7.569008,-7.568078 0,-4.17248 -3.395599,-7.568079 -7.569008,-7.568079 z"
     id="path5"
     inkscape:connector-curvature="0" /></g></svg>